<?xml version="1.0" standalone="no"?>
<!DOCTYPE svg PUBLIC "-//W3C//DTD SVG 20010904//EN"
 "http://www.w3.org/TR/2001/REC-SVG-20010904/DTD/svg10.dtd">
<svg version="1.0" xmlns="http://www.w3.org/2000/svg"
 width="775.000000pt" height="775.000000pt" viewBox="0 0 775.000000 775.000000"
 preserveAspectRatio="xMidYMid meet">
<metadata>
Created by potrace 1.11, written by Peter Selinger 2001-2013
</metadata>
<g transform="translate(0.000000,775.000000) scale(0.100000,-0.100000)"
fill="#000000" stroke="none">
<path d="M3401 6337 c-28 -162 7 -329 94 -453 42 -60 170 -166 194 -162 22 5
43 105 37 178 -11 154 -60 261 -169 372 -69 70 -132 128 -141 128 -2 0 -9 -28
-15 -63z m129 -202 c0 -8 -4 -15 -10 -15 -5 0 -10 7 -10 15 0 8 5 15 10 15 6
0 10 -7 10 -15z m22 -67 c-15 -15 -26 -4 -18 18 5 13 9 15 18 6 9 -9 9 -15 0
-24z m23 -38 c3 -5 -1 -10 -9 -10 -9 0 -16 5 -16 10 0 6 4 10 9 10 6 0 13 -4
16 -10z m21 -44 c8 -8 14 -19 14 -25 0 -17 -17 -13 -24 5 -3 8 -10 12 -16 9
-6 -3 -7 1 -4 9 8 20 12 20 30 2z m34 -76 c0 -5 -4 -10 -10 -10 -5 0 -10 5
-10 10 0 6 5 10 10 10 6 0 10 -4 10 -10z m20 -55 c0 -8 -4 -15 -9 -15 -13 0
-22 16 -14 24 11 11 23 6 23 -9z m20 -45 c0 -5 -4 -10 -9 -10 -6 0 -13 5 -16
10 -3 6 1 10 9 10 9 0 16 -4 16 -10z"/>
<path d="M3995 6243 c-59 -121 -80 -219 -71 -338 6 -87 21 -137 63 -215 33
-60 61 -93 73 -85 18 11 66 91 90 150 22 53 25 75 25 180 0 100 -4 130 -23
180 -40 105 -94 205 -111 205 -5 0 -25 -35 -46 -77z m75 -122 c0 -6 -4 -13
-10 -16 -5 -3 -10 1 -10 9 0 9 5 16 10 16 6 0 10 -4 10 -9z m0 -71 c0 -22 -8
-25 -30 -10 -13 9 -13 11 0 20 22 15 30 12 30 -10z m4 -58 c-1 -7 -2 -28 -2
-47 -2 -37 -7 -41 -32 -25 -13 8 -13 11 -1 19 7 5 10 14 7 20 -10 16 3 53 17
48 7 -2 12 -9 11 -15z m-2 -154 c-4 -50 -7 -54 -32 -38 -13 8 -12 11 4 23 17
13 17 14 1 31 -17 16 -16 18 1 31 26 19 31 8 26 -47z m-2 -88 c0 -22 -8 -25
-30 -10 -13 9 -13 11 0 20 22 15 30 12 30 -10z m-9 -63 c-13 -13 -26 -3 -16
12 3 6 11 8 17 5 6 -4 6 -10 -1 -17z"/>
<path d="M2361 6064 c3 -5 11 -22 18 -39 92 -209 252 -366 421 -414 25 -7 59
-17 76 -22 17 -5 65 -9 108 -9 106 0 106 0 28 158 -30 60 -130 167 -194 209
-104 67 -233 109 -362 119 -58 4 -97 3 -95 -2z m242 -144 c9 0 28 -13 44 -30
18 -19 34 -28 45 -24 12 3 18 0 18 -9 0 -8 7 -21 16 -28 14 -11 18 -10 29 5
12 16 14 16 17 -11 2 -20 9 -29 26 -31 12 -2 27 -12 33 -24 8 -15 17 -18 35
-14 21 6 24 3 24 -19 0 -20 -5 -25 -25 -25 -18 0 -23 4 -19 15 5 12 -3 15 -40
15 -43 0 -61 12 -33 23 21 9 -15 28 -41 22 -20 -5 -23 -3 -17 15 5 17 2 20
-20 20 -19 0 -29 6 -32 20 -3 11 -16 23 -29 26 -13 3 -24 13 -24 20 0 8 -13
17 -29 20 -31 6 -46 28 -34 47 4 6 13 2 24 -11 9 -12 24 -22 32 -22z m27 -110
c0 -5 -4 -10 -10 -10 -5 0 -10 5 -10 10 0 6 5 10 10 10 6 0 10 -4 10 -10z
m313 -114 c7 -18 -1 -26 -25 -26 -11 0 -18 7 -18 20 0 23 35 28 43 6z m47 -36
c0 -11 -7 -20 -15 -20 -15 0 -21 21 -8 33 12 13 23 7 23 -13z"/>
<path d="M5195 6026 c-165 -25 -319 -108 -419 -226 -56 -65 -133 -217 -118
-232 13 -13 171 -11 230 4 125 30 240 108 333 225 61 78 143 225 132 237 -9 9
-65 6 -158 -8z m-85 -118 c0 -7 3 -23 6 -35 5 -18 0 -25 -30 -40 -37 -17 -47
-33 -21 -33 8 0 15 -5 15 -11 0 -7 -12 -9 -34 -5 -24 5 -39 2 -49 -9 -9 -8
-20 -15 -25 -15 -4 0 -19 -11 -32 -25 -13 -14 -29 -25 -36 -25 -6 0 -17 -7
-24 -15 -18 -21 -52 -20 -48 2 2 10 10 18 18 19 36 2 40 5 40 29 0 22 3 24 30
19 26 -6 30 -4 30 16 0 16 4 21 16 16 26 -10 44 13 44 55 0 21 5 41 10 44 6 4
10 -6 10 -24 0 -16 4 -32 9 -36 15 -8 51 36 51 62 0 13 5 23 10 23 6 0 10 -6
10 -12z m69 -1 c13 -16 5 -27 -21 -27 -20 0 -21 1 -12 24 7 20 18 20 33 3z
m-359 -249 c0 -13 -8 -18 -25 -18 -30 0 -30 3 -8 36 12 19 18 22 24 12 5 -7 9
-21 9 -30z m-50 -50 c0 -3 -9 -4 -20 -1 -19 5 -27 33 -13 47 6 6 32 -29 33
-46z"/>
<path d="M3187 5887 c-5 -31 5 -157 18 -227 14 -71 87 -200 147 -258 52 -52
157 -121 184 -122 14 0 34 66 34 111 0 62 -28 169 -62 237 -35 72 -167 215
-223 242 -16 8 -32 17 -35 20 -6 6 -49 30 -54 30 -2 0 -6 -15 -9 -33z m123
-157 c0 -5 -4 -10 -10 -10 -5 0 -10 5 -10 10 0 6 5 10 10 10 6 0 10 -4 10 -10z
m40 -50 c0 -11 -4 -20 -9 -20 -14 0 -23 18 -16 30 10 17 25 11 25 -10z m37
-62 c0 -13 3 -32 8 -43 6 -15 1 -14 -20 8 -21 23 -24 31 -15 42 18 21 28 18
27 -7z m43 -103 c0 -8 -7 -15 -15 -15 -16 0 -20 12 -8 23 11 12 23 8 23 -8z
m30 -55 c0 -5 -4 -10 -10 -10 -5 0 -10 5 -10 10 0 6 5 10 10 10 6 0 10 -4 10
-10z m30 -51 c0 -5 -4 -9 -10 -9 -5 0 -10 7 -10 16 0 8 5 12 10 9 6 -3 10 -10
10 -16z"/>
<path d="M4505 5907 c-227 -136 -346 -327 -333 -531 2 -36 9 -71 15 -77 15
-15 98 27 165 83 48 40 138 165 138 192 0 8 4 17 9 20 16 10 40 132 48 244 5
87 1 95 -42 69z m-55 -157 c0 -5 -4 -10 -10 -10 -5 0 -10 5 -10 10 0 6 5 10
10 10 6 0 10 -4 10 -10z m-32 -67 c-5 -25 -28 -28 -28 -4 0 12 6 21 16 21 9 0
14 -7 12 -17z m-24 -75 c-3 -5 -12 -8 -20 -8 -11 0 -13 -6 -9 -20 5 -16 2 -20
-14 -20 -22 0 -29 24 -11 35 6 3 10 15 10 25 0 10 6 20 13 23 13 4 38 -23 31
-35z m-59 -68 c8 -13 -13 -40 -31 -40 -14 0 -19 31 -7 43 10 10 31 8 38 -3z
m-6 -66 c7 -6 -2 -11 -31 -18 -27 -6 -39 10 -21 27 6 7 42 0 52 -9z m-61 -43
c27 -23 28 -31 2 -31 -16 0 -40 26 -40 44 0 12 17 6 38 -13z m-20 -59 c2 -7
-3 -12 -12 -12 -9 0 -16 7 -16 16 0 17 22 14 28 -4z"/>
<path d="M3813 5508 c-47 -96 -73 -168 -73 -199 0 -15 -4 -30 -9 -33 -8 -5
-23 -104 -24 -161 0 -32 15 -126 31 -188 10 -37 60 -147 71 -157 3 -3 19 -22
34 -42 15 -21 34 -38 41 -38 12 0 31 30 77 123 47 93 59 149 59 281 0 121 -14
196 -51 268 -5 10 -9 22 -9 28 0 27 -70 154 -95 172 -18 13 -21 9 -52 -54z
m65 -68 c2 -30 8 -60 13 -67 7 -8 7 -18 0 -32 -6 -11 -11 -27 -11 -37 0 -16 1
-16 20 1 18 17 20 17 26 0 4 -9 3 -20 -2 -24 -14 -9 -44 -58 -44 -71 0 -16 14
-12 53 14 28 20 37 22 41 10 3 -8 -1 -14 -9 -14 -8 0 -15 -4 -15 -10 0 -5 -15
-26 -32 -46 -31 -36 -32 -37 -8 -29 14 4 32 14 41 21 19 17 29 18 29 2 0 -7
-21 -31 -47 -54 -27 -23 -45 -45 -40 -50 4 -4 18 3 31 15 24 23 46 21 46 -2 0
-7 -20 -29 -45 -49 -26 -20 -41 -39 -35 -43 5 -3 17 1 26 9 8 9 20 16 25 16
20 0 8 -36 -21 -64 -32 -30 -34 -51 -2 -22 14 12 25 14 43 8 l24 -9 -23 -7
c-12 -4 -22 -13 -22 -21 0 -7 -5 -15 -12 -17 -8 -3 -8 -9 -1 -23 9 -15 6 -26
-13 -54 -13 -20 -24 -41 -24 -48 0 -7 -4 -13 -10 -13 -5 0 -10 6 -10 13 0 7
-11 28 -25 47 -26 35 -33 56 -15 45 18 -11 11 10 -15 45 -27 36 -24 56 6 40
28 -15 23 1 -8 27 -20 18 -24 26 -15 35 8 8 15 8 27 -2 25 -21 17 6 -12 42
-15 18 -32 36 -38 40 -22 16 9 21 36 6 41 -24 36 -8 -11 36 -22 20 -40 41 -40
46 0 13 27 13 35 0 3 -5 14 -10 23 -10 11 0 3 12 -25 36 -24 20 -43 44 -43 55
0 26 5 24 51 -12 30 -24 39 -27 39 -14 0 9 -11 31 -25 49 -37 48 -32 75 7 39
15 -13 18 -14 18 -1 0 8 -7 23 -15 34 -19 25 -19 48 0 40 12 -4 15 6 15 58 0
34 3 66 7 70 16 16 28 -4 31 -54z"/>
<path d="M2037 5470 l-28 -5 32 -50 c95 -149 224 -248 372 -284 57 -13 186
-14 207 -1 31 19 -27 121 -114 203 -86 80 -203 126 -345 136 -53 3 -109 4
-124 1z m162 -89 c8 -5 9 -11 3 -15 -5 -3 -15 1 -22 9 -14 16 -3 20 19 6z m75
-36 c11 -8 28 -15 38 -15 10 0 18 -7 18 -15 0 -8 -7 -15 -15 -15 -8 0 -15 4
-15 10 0 5 -16 12 -35 16 -20 3 -35 12 -35 20 0 18 20 17 44 -1z m96 -43 c0
-19 -18 -42 -32 -42 -12 0 -9 29 5 45 17 20 27 18 27 -3z m60 -42 c0 -13 -7
-20 -20 -20 -11 0 -20 2 -20 4 0 2 -3 11 -6 20 -5 12 0 16 20 16 19 0 26 -5
26 -20z m38 -27 c-2 -9 -8 -18 -15 -20 -7 -3 -9 3 -6 16 6 25 26 28 21 4z m62
-27 c0 -13 -20 -26 -41 -26 -14 0 -11 28 4 33 23 10 37 7 37 -7z m40 -32 c0
-8 -4 -14 -9 -14 -11 0 -22 26 -14 34 9 9 23 -3 23 -20z"/>
<path d="M5475 5470 c-11 -4 -40 -14 -65 -21 -79 -23 -153 -69 -216 -136 -49
-51 -110 -161 -97 -174 16 -16 129 -22 199 -10 144 25 292 128 387 269 26 39
47 73 47 76 0 9 -232 6 -255 -4z m15 -120 c0 -5 -4 -10 -10 -10 -5 0 -10 5
-10 10 0 6 5 10 10 10 6 0 10 -4 10 -10z m-57 -16 c11 -11 -5 -34 -23 -34 -10
0 -20 -6 -23 -12 -2 -7 -7 -10 -11 -7 -10 10 5 39 20 39 8 0 14 5 14 10 0 11
13 13 23 4z m-95 -67 c2 -10 -3 -17 -12 -17 -10 0 -16 9 -16 21 0 24 23 21 28
-4z m-58 -37 c0 -5 -4 -10 -10 -10 -5 0 -10 5 -10 10 0 6 5 10 10 10 6 0 10
-4 10 -10z m-54 -27 c-10 -10 -19 5 -10 18 6 11 8 11 12 0 2 -7 1 -15 -2 -18z
m-36 -18 c0 -8 -4 -15 -10 -15 -5 0 -10 7 -10 15 0 8 5 15 10 15 6 0 10 -7 10
-15z"/>
<path d="M2669 5434 c-3 -18 3 -49 11 -59 4 -5 11 -21 15 -35 12 -40 91 -196
126 -247 152 -224 342 -376 554 -445 92 -30 150 -40 269 -45 l109 -5 -6 39
c-33 202 -175 426 -364 571 -98 75 -307 167 -438 193 -27 5 -70 14 -95 20 -70
15 -180 23 -181 13z m293 -204 c5 0 8 7 8 15 0 27 17 16 23 -14 8 -36 43 -70
80 -78 16 -3 33 -16 39 -28 6 -13 21 -29 34 -36 13 -7 24 -16 24 -21 0 -4 5
-8 10 -8 6 0 10 21 10 46 0 27 4 43 10 39 6 -3 10 -28 10 -55 0 -42 4 -52 25
-66 13 -8 29 -13 35 -9 5 3 10 0 10 -8 0 -13 50 -67 63 -67 4 0 7 14 7 30 0
17 5 30 10 30 6 0 10 -18 10 -40 0 -54 57 -107 73 -67 8 18 27 -12 27 -41 0
-24 38 -64 52 -55 5 2 8 14 8 26 0 32 17 8 23 -33 5 -34 4 -35 -32 -37 -20 -1
-53 -5 -73 -8 -25 -5 -38 -3 -38 4 0 6 13 11 29 11 16 0 34 7 41 15 19 23 -5
45 -51 45 -22 0 -39 5 -39 10 0 6 7 10 15 10 23 0 18 14 -12 32 -29 17 -118
15 -129 -3 -7 -12 -34 -11 -34 1 0 6 9 10 19 10 11 0 23 5 26 10 3 6 17 10 31
10 31 0 30 11 -1 38 -26 23 -79 30 -90 12 -3 -5 -15 -10 -26 -10 -11 0 -17 5
-14 10 3 6 15 10 26 10 11 0 22 7 25 15 9 22 -16 46 -45 45 -41 -3 -44 -1 -31
15 7 9 11 17 9 18 -2 2 -17 13 -33 25 -23 17 -42 22 -92 22 -36 0 -64 4 -64
10 0 6 18 10 40 10 22 0 40 4 40 8 0 13 -48 52 -64 52 -27 0 -45 12 -39 26 3
8 1 14 -4 14 -4 0 -14 10 -21 21 -13 21 -13 21 9 5 13 -9 27 -16 31 -16z m140
-222 c-9 -9 -15 -9 -24 0 -9 9 -7 12 12 12 19 0 21 -3 12 -12z m428 -134 c0
-8 -4 -12 -10 -9 -5 3 -10 10 -10 16 0 5 5 9 10 9 6 0 10 -7 10 -16z m80 -106
c0 -13 3 -33 6 -45 5 -20 2 -23 -21 -23 -22 0 -26 3 -20 18 4 9 10 29 13 45 5
33 22 36 22 5z"/>
<path d="M4955 5425 c-177 -25 -353 -76 -457 -132 -202 -110 -358 -270 -440
-453 -33 -74 -70 -195 -66 -217 8 -42 269 -10 423 52 265 107 494 354 624 675
28 67 31 92 13 89 -4 -1 -47 -7 -97 -14z m-48 -119 c-15 -14 -29 -26 -34 -26
-10 0 -73 -62 -73 -72 0 -4 7 -8 15 -8 8 0 15 -4 15 -10 0 -5 -17 -10 -37 -10
-41 0 -108 -34 -98 -50 3 -6 26 -10 51 -10 24 0 44 -4 44 -10 0 -9 -72 -16
-125 -12 -11 1 -33 -9 -50 -22 -25 -20 -28 -26 -16 -40 8 -10 29 -16 52 -16
22 0 39 -5 39 -11 0 -7 -28 -10 -87 -7 -100 4 -117 -10 -52 -41 24 -12 48 -21
53 -21 6 0 19 -7 30 -15 17 -13 15 -14 -20 -8 -22 3 -43 10 -49 14 -5 5 -19 9
-31 9 -13 0 -26 5 -29 10 -10 17 -38 11 -70 -14 l-29 -24 62 -18 c34 -10 62
-22 62 -26 0 -12 -78 -10 -85 2 -10 16 -91 12 -105 -5 -7 -9 -11 -16 -9 -18
38 -22 54 -27 79 -27 16 0 30 -4 30 -10 0 -11 -32 -12 -107 -1 -36 5 -56 3
-69 -6 -10 -7 -16 -14 -13 -17 14 -12 51 -26 68 -26 12 0 21 -5 21 -11 0 -9
-21 -10 -72 -6 -79 7 -101 0 -96 -29 2 -15 -4 -20 -32 -22 -19 -2 -41 -10 -47
-19 -7 -9 -16 -14 -19 -10 -4 3 1 14 10 23 9 9 20 29 23 45 3 16 10 32 14 35
5 3 9 14 9 25 0 10 5 19 10 19 6 0 10 -13 10 -30 0 -52 17 -32 30 35 7 35 19
70 28 77 13 12 15 8 10 -34 -3 -27 -3 -48 0 -48 3 0 16 10 29 22 19 18 23 32
23 79 0 32 4 60 9 63 10 7 21 -27 21 -67 0 -25 2 -27 20 -17 28 15 50 73 50
131 0 27 5 49 10 49 6 0 10 -27 10 -60 0 -33 4 -60 9 -60 5 0 19 12 30 26 16
21 21 41 21 90 0 36 4 64 10 64 6 0 10 -25 10 -55 0 -43 3 -55 15 -55 20 0 31
30 39 109 8 70 13 84 26 76 5 -3 7 -33 3 -65 -3 -33 -2 -60 2 -60 22 0 75 53
75 75 0 13 5 27 10 30 6 3 10 -1 10 -9 0 -9 6 -16 13 -16 19 0 67 49 67 68 0
18 18 42 32 42 4 0 5 -7 2 -15 -10 -26 13 -17 88 34 78 52 96 58 55 17z m-237
-65 c0 -6 -4 -13 -10 -16 -5 -3 -10 1 -10 9 0 9 5 16 10 16 6 0 10 -4 10 -9z
m70 -251 c0 -5 -9 -10 -20 -10 -11 0 -20 5 -20 10 0 6 9 10 20 10 11 0 20 -4
20 -10z"/>
<path d="M2369 4955 c-4 -3 -36 -10 -73 -16 -73 -10 -217 -56 -228 -73 -19
-29 169 -163 298 -213 111 -43 173 -55 274 -55 97 0 194 20 283 60 67 30 70
44 24 92 -86 92 -221 170 -330 192 -65 12 -240 22 -248 13z m-39 -135 c0 -5
-4 -10 -10 -10 -5 0 -10 5 -10 10 0 6 5 10 10 10 6 0 10 -4 10 -10z m100 -16
c0 -10 -7 -14 -22 -12 -32 5 -35 28 -4 28 17 0 26 -5 26 -16z m86 -5 c10 -16
-9 -29 -34 -23 -35 10 -26 25 20 33 4 0 10 -4 14 -10z m142 -26 c7 -12 17 -14
41 -10 27 6 31 4 31 -14 0 -18 -4 -20 -22 -14 -13 4 -32 7 -43 6 -10 0 -25 5
-32 11 -7 6 -29 8 -49 5 -30 -5 -34 -4 -24 8 6 8 26 16 43 18 18 2 35 5 39 5
4 1 11 -5 16 -15z m159 -40 c2 -6 -5 -13 -17 -16 -22 -6 -23 -5 -14 18 7 17
25 16 31 -2z m54 -16 c-1 -12 -15 -9 -19 4 -3 6 1 10 8 8 6 -3 11 -8 11 -12z"/>
<path d="M5220 4949 c-168 -15 -281 -63 -391 -166 -38 -36 -69 -70 -69 -75 0
-30 229 -98 330 -98 152 0 345 71 485 178 104 80 103 75 23 104 -129 47 -262
67 -378 57z m70 -67 c0 -5 -7 -17 -15 -28 -32 -43 -2 -47 46 -7 l32 28 -7 -28
c-8 -33 2 -34 39 -5 22 17 31 19 46 10 23 -15 66 -16 74 -2 3 6 15 10 26 10
10 0 19 -4 19 -10 0 -5 -8 -10 -18 -10 -10 0 -22 -3 -26 -7 -13 -13 -81 -33
-113 -33 -18 0 -33 -4 -33 -10 0 -5 7 -10 15 -10 8 0 15 -4 15 -10 0 -14 -13
-13 -60 6 -55 22 -75 6 -40 -31 32 -34 3 -34 -38 0 -47 39 -68 32 -36 -13 25
-36 9 -38 -28 -3 -18 17 -41 31 -50 31 -24 0 -23 -9 4 -37 34 -36 12 -40 -36
-6 -41 29 -56 32 -56 12 0 -4 8 -15 17 -25 16 -16 16 -16 -7 -9 -14 4 -34 14
-45 21 -11 8 -23 14 -27 14 -14 0 -8 -23 10 -36 29 -22 -6 -17 -45 7 -31 19
-36 20 -51 6 -12 -11 -22 -13 -32 -7 -8 5 -23 7 -32 4 -10 -3 -18 -1 -18 5 0
6 5 11 10 11 6 0 24 15 41 33 18 18 28 25 25 15 -8 -26 11 -22 36 7 26 30 42
32 33 5 -9 -30 4 -25 48 18 39 37 40 37 33 10 -9 -38 7 -35 45 7 38 41 53 45
37 10 -6 -14 -8 -28 -4 -32 8 -8 66 50 66 66 0 6 5 11 10 11 6 0 10 -7 10 -15
0 -8 -4 -15 -10 -15 -5 0 -10 -7 -10 -15 0 -25 15 -17 49 25 30 37 51 51 51
32z m-360 -192 c0 -5 -4 -10 -9 -10 -6 0 -13 5 -16 10 -3 6 1 10 9 10 9 0 16
-4 16 -10z"/>
<path d="M3105 4540 c-33 -4 -76 -12 -95 -18 -19 -6 -46 -14 -60 -17 -69 -19
-197 -85 -290 -151 -98 -68 -192 -154 -188 -172 4 -17 84 -47 198 -75 63 -15
129 -21 250 -24 144 -4 176 -2 245 17 135 35 250 89 335 155 66 53 152 145
148 161 -4 21 -109 75 -198 102 -74 23 -252 34 -345 22z m285 -130 c0 -5 6
-10 14 -10 27 0 35 -24 16 -47 -21 -26 -30 -29 -30 -9 0 8 -10 17 -22 19 l-23
4 23 8 c22 7 31 25 12 25 -5 0 -10 5 -10 10 0 6 5 10 10 10 6 0 10 -4 10 -10z
m109 -9 c8 -5 11 -16 7 -26 -5 -14 -9 -15 -21 -5 -16 13 -21 40 -7 40 4 0 13
-4 21 -9z m-281 -37 c18 -8 41 -13 52 -9 11 4 20 2 20 -4 0 -6 -11 -11 -24
-11 -16 0 -27 -7 -31 -20 -3 -11 -11 -20 -16 -20 -5 0 -9 -7 -9 -15 0 -8 -5
-15 -10 -15 -7 0 -7 6 -1 19 13 23 5 31 -30 31 -19 0 -32 -7 -40 -22 -8 -14
-14 -18 -17 -10 -2 6 -16 12 -31 12 -19 0 -32 -9 -46 -32 -10 -18 -20 -27 -23
-20 -2 7 1 19 8 26 7 10 8 16 0 21 -13 8 -13 45 -1 45 6 0 13 -4 16 -10 10
-16 68 -13 62 3 -4 11 6 13 44 9 49 -5 60 3 37 26 -17 17 3 15 40 -4z m117 6
c3 -5 -2 -23 -12 -40 -17 -30 -33 -39 -33 -20 0 6 5 10 11 10 6 0 8 9 4 20
-10 31 14 55 30 30z m-325 -80 c0 -5 -14 -10 -32 -10 -19 0 -41 -9 -55 -22
-20 -19 -26 -20 -33 -8 -15 25 19 49 73 49 26 1 47 -3 47 -9z m-190 -29 c0
-17 -26 -30 -48 -24 -26 6 -29 20 -4 26 30 8 52 7 52 -2z m290 -6 c0 -8 -4
-15 -10 -15 -5 0 -10 7 -10 15 0 8 5 15 10 15 6 0 10 -7 10 -15z"/>
<path d="M4410 4540 c-78 -7 -157 -28 -223 -61 -22 -10 -44 -19 -51 -19 -7 0
-23 -11 -36 -25 l-24 -25 65 -66 c122 -124 255 -200 427 -243 104 -26 320 -29
427 -6 39 9 86 18 105 22 19 3 40 9 45 13 6 4 32 13 58 21 68 19 73 30 35 69
-37 36 -181 148 -217 168 -13 8 -40 23 -60 35 -73 42 -136 69 -201 87 -25 7
-54 16 -65 20 -28 12 -194 17 -285 10z m-145 -142 c-3 -13 -7 -28 -7 -35 -1
-8 -7 -9 -20 -2 -23 12 -23 28 0 45 25 20 35 17 27 -8z m105 13 c0 -5 -6 -11
-12 -14 -16 -5 -10 -12 18 -21 14 -4 33 2 57 19 21 13 37 20 37 15 0 -5 -9
-15 -20 -23 -11 -8 -17 -17 -13 -20 10 -10 78 -8 89 2 5 5 27 19 49 31 l40 21
-32 -31 c-18 -17 -33 -35 -33 -41 0 -18 66 -9 89 12 12 12 25 18 28 15 4 -3
-3 -14 -15 -24 -42 -36 6 -44 65 -11 21 12 44 26 51 31 7 6 15 8 18 5 3 -3 -9
-13 -26 -23 -17 -10 -29 -25 -28 -34 4 -19 69 -26 98 -10 13 7 20 7 20 0 0 -5
-4 -10 -10 -10 -5 0 -10 -4 -10 -10 0 -5 24 -10 53 -10 50 0 107 -17 107 -31
0 -11 -47 -20 -64 -13 -9 3 -16 10 -16 15 0 5 -16 9 -35 9 -39 0 -42 -6 -19
-38 23 -33 10 -27 -35 18 -29 29 -49 40 -71 40 -27 0 -30 -2 -24 -25 4 -15 2
-25 -5 -25 -6 0 -11 7 -11 15 0 8 -4 15 -9 15 -5 0 -11 9 -14 20 -3 14 -14 20
-31 20 -26 0 -36 -22 -16 -35 6 -3 10 -13 10 -21 0 -23 -15 -9 -34 31 -11 22
-26 37 -42 41 -30 8 -52 -9 -37 -28 6 -7 13 -23 16 -36 4 -19 3 -21 -9 -11 -8
6 -14 15 -14 20 0 5 -10 25 -22 44 -17 26 -30 35 -50 35 -28 0 -37 -13 -18
-25 6 -3 10 -14 10 -23 0 -12 -8 -7 -26 16 -29 37 -60 56 -75 47 -6 -5 -5 -15
6 -31 26 -40 1 -27 -35 18 -19 23 -29 43 -23 45 5 2 19 10 29 18 22 16 44 19
44 6z m375 -201 c3 -5 1 -10 -4 -10 -6 0 -11 5 -11 10 0 6 2 10 4 10 3 0 8 -4
11 -10z"/>
<path d="M3866 4492 c-3 -20 -11 -59 -16 -87 -6 -27 -15 -77 -20 -110 -5 -33
-14 -82 -20 -110 -6 -27 -15 -77 -20 -110 -5 -33 -11 -69 -14 -80 -5 -20 -10
-49 -46 -260 -11 -66 -25 -140 -30 -165 -5 -25 -15 -76 -21 -115 -6 -38 -14
-86 -19 -105 -5 -19 -14 -69 -20 -110 -6 -41 -15 -91 -20 -110 -8 -32 -15 -71
-22 -125 -3 -20 4 -20 280 -23 l284 -2 -6 27 c-3 16 -10 62 -16 103 -6 41 -15
89 -20 105 -4 17 -13 68 -20 115 -7 47 -16 94 -20 105 -5 11 -11 40 -14 65
-11 95 -18 136 -26 155 -5 11 -11 43 -14 70 -4 28 -10 70 -15 95 -5 25 -18 97
-29 160 -12 63 -31 169 -43 235 -11 66 -25 143 -29 170 -19 119 -23 136 -30
140 -4 3 -10 -12 -14 -33z"/>
<path d="M3215 2783 c-78 -11 -148 -66 -182 -140 -22 -51 -23 -64 -23 -273 0
-213 1 -221 25 -274 28 -61 78 -108 134 -125 52 -15 625 -15 672 0 97 33 134
94 134 219 l0 85 -80 0 -80 0 -5 -70 c-7 -99 2 -96 -317 -93 -338 4 -307 -20
-311 243 -4 239 1 258 81 275 57 13 480 10 509 -4 22 -10 30 -31 37 -96 l6
-55 75 0 75 0 3 60 c6 106 -28 177 -106 222 l-47 28 -285 1 c-157 1 -298 0
-315 -3z"/>
<path d="M5105 2783 c-53 -5 -124 -39 -152 -71 -24 -28 -35 -54 -49 -117 -10
-44 4 -154 24 -191 17 -32 69 -73 100 -80 15 -3 38 -10 52 -15 14 -5 133 -11
265 -14 267 -5 301 -9 315 -36 15 -27 12 -92 -5 -116 -20 -29 -51 -33 -302
-34 -278 -1 -277 -1 -281 94 l-3 68 -82 -3 -82 -3 1 -86 c2 -72 6 -92 25 -122
24 -36 60 -63 114 -84 41 -16 569 -17 630 -2 59 15 128 76 143 127 16 54 15
185 -2 226 -20 48 -73 93 -125 106 -25 6 -60 15 -77 20 -17 6 -138 10 -270 10
-282 1 -277 -1 -272 86 3 54 5 60 33 73 38 18 342 27 443 13 85 -12 101 -26
102 -89 l0 -43 80 0 80 0 0 65 c0 104 -33 155 -125 196 -47 20 -66 22 -295 24
-135 2 -263 1 -285 -2z"/>
<path d="M2367 2743 c-23 -36 -100 -164 -137 -228 -9 -16 -45 -77 -80 -135
-35 -58 -71 -118 -80 -135 -10 -16 -49 -83 -89 -149 -39 -65 -68 -122 -65
-127 3 -5 45 -9 94 -9 84 0 90 1 102 24 7 14 28 50 46 80 l34 56 280 -2 281
-3 46 -75 47 -75 92 -3 c87 -3 92 -2 92 18 0 11 -4 20 -10 20 -5 0 -10 5 -10
10 0 6 -11 27 -24 48 -13 20 -83 138 -156 262 -73 124 -144 243 -158 265 -14
22 -31 49 -37 60 -6 11 -26 46 -44 78 l-33 57 -84 0 -84 0 -23 -37z m123 -171
c0 -8 89 -164 107 -188 4 -5 14 -20 21 -32 6 -12 17 -31 24 -42 7 -10 9 -23 4
-27 -9 -9 -343 -9 -353 0 -3 4 -1 12 5 19 9 11 77 126 134 228 11 19 22 38 25
43 6 10 33 9 33 -1z"/>
<path d="M4035 2767 c-3 -6 -4 -190 -3 -407 l3 -395 394 -3 c282 -1 398 1 407
9 9 7 14 33 14 70 0 48 -4 60 -20 69 -13 7 -125 10 -317 10 l-298 -1 0 93 0
93 298 3 297 2 0 75 0 75 -300 0 -301 0 3 83 3 82 310 5 310 5 3 73 3 72 -401
0 c-312 0 -402 -3 -405 -13z"/>
<path d="M877 1763 c-4 -3 -7 -24 -7 -45 l0 -38 -44 0 c-36 0 -48 -5 -65 -26
-27 -34 -28 -103 -3 -134 19 -23 28 -24 121 -18 l43 3 -1 124 c-1 69 -4 128
-7 133 -6 10 -28 11 -37 1z m-9 -170 c3 -44 0 -52 -18 -58 -46 -15 -80 26 -64
78 9 29 23 38 54 35 23 -3 25 -8 28 -55z"/>
<path d="M3137 1764 c-4 -4 -7 -65 -7 -136 0 -122 1 -128 20 -128 20 0 20 5
18 132 -3 122 -10 153 -31 132z"/>
<path d="M4525 1748 c-4 -14 -5 -28 -4 -34 5 -28 -3 -34 -49 -34 -63 0 -83
-21 -85 -89 -2 -40 3 -55 20 -72 21 -22 36 -24 118 -17 l40 3 0 130 c0 115 -2
130 -17 133 -11 2 -19 -5 -23 -20z m-8 -138 c13 -42 -1 -73 -36 -78 -31 -5
-51 15 -51 49 0 74 65 95 87 29z"/>
<path d="M6094 1757 c-2 -7 -3 -67 -2 -132 3 -105 5 -120 21 -123 15 -3 17 8
17 132 0 115 -2 136 -15 136 -9 0 -18 -6 -21 -13z"/>
<path d="M194 1743 c-3 -10 -10 -27 -14 -38 -12 -28 -60 -186 -60 -197 0 -5
10 -8 23 -6 15 2 23 11 26 28 4 31 17 40 61 40 32 0 37 -4 49 -35 8 -24 19
-35 32 -35 21 0 24 16 10 52 -5 13 -19 57 -31 98 -29 99 -32 104 -64 108 -18
2 -28 -2 -32 -15z m45 -74 c18 -51 14 -69 -13 -69 -14 0 -27 4 -31 9 -6 11 17
91 26 91 4 0 12 -14 18 -31z"/>
<path d="M1515 1750 c-8 -14 3 -30 21 -30 8 0 14 9 14 20 0 21 -24 28 -35 10z"/>
<path d="M1907 1729 c-20 -17 -37 -39 -37 -49 0 -10 -4 -22 -10 -25 -25 -16 8
-111 48 -141 37 -27 142 -25 142 2 0 10 -13 14 -44 14 -66 0 -98 30 -98 94 0
67 28 96 93 96 31 0 49 5 52 14 8 21 -2 26 -57 26 -43 0 -58 -5 -89 -31z"/>
<path d="M3230 1740 c0 -13 7 -20 20 -20 13 0 20 7 20 20 0 13 -7 20 -20 20
-13 0 -20 -7 -20 -20z"/>
<path d="M3892 1737 c-24 -26 -28 -57 -10 -75 9 -9 7 -17 -10 -35 -54 -57 -30
-129 43 -129 90 1 145 3 145 8 0 2 -5 12 -11 22 -9 14 -8 25 5 50 21 41 20 62
-3 62 -13 0 -20 -9 -24 -30 -8 -35 -23 -38 -48 -8 -24 27 -24 30 6 58 14 13
25 33 25 45 0 53 -79 74 -118 32z m76 -33 c4 -29 -23 -51 -43 -34 -8 7 -15 21
-15 30 0 35 53 38 58 4z m-26 -121 c33 -31 36 -49 8 -58 -30 -10 -60 12 -60
44 0 48 13 52 52 14z"/>
<path d="M4197 1754 c-4 -4 -7 -63 -7 -131 l0 -123 81 0 c60 0 80 3 77 13 -3
6 -27 14 -54 17 -45 5 -49 7 -52 33 -5 38 14 57 52 54 22 -1 31 2 31 13 0 10
-11 16 -30 17 -16 0 -36 2 -42 2 -8 1 -13 15 -13 35 l0 35 53 3 c38 2 52 7 52
18 0 12 -16 16 -70 18 -39 1 -74 0 -78 -4z"/>
<path d="M5355 1750 c-8 -14 3 -30 21 -30 8 0 14 9 14 20 0 21 -24 28 -35 10z"/>
<path d="M6298 1739 c-33 -24 -37 -66 -10 -93 9 -10 35 -28 57 -40 70 -38 57
-78 -25 -74 -34 2 -46 -1 -48 -14 -2 -11 7 -18 32 -22 71 -13 126 16 126 68 0
41 -7 49 -60 79 -33 19 -45 31 -45 49 0 20 6 24 45 28 31 3 45 10 45 20 0 25
-84 24 -117 -1z"/>
<path d="M7030 1740 c0 -13 7 -20 20 -20 13 0 20 7 20 20 0 13 -7 20 -20 20
-13 0 -20 -7 -20 -20z"/>
<path d="M5238 1715 c-7 -9 -19 -22 -25 -30 -17 -18 -16 -32 2 -38 10 -4 15
-26 17 -74 3 -64 5 -68 31 -77 20 -7 30 -6 40 3 10 10 8 16 -10 28 -32 21 -33
107 -3 123 11 6 20 15 20 20 0 6 -9 10 -20 10 -13 0 -20 7 -20 19 0 27 -16 35
-32 16z"/>
<path d="M439 1682 c-42 -5 -74 -46 -74 -97 0 -52 22 -80 71 -89 36 -7 79 8
69 25 -4 5 -17 9 -31 9 -43 0 -64 17 -64 54 0 39 23 63 64 68 16 1 31 8 33 14
4 13 -29 21 -68 16z"/>
<path d="M2972 1683 c-30 -6 -62 -59 -62 -104 0 -59 59 -97 129 -83 36 8 36
30 0 27 -37 -3 -80 17 -77 36 2 12 17 17 61 19 55 3 57 4 57 31 0 51 -49 84
-108 74z m53 -40 c16 -16 16 -17 -1 -30 -10 -7 -25 -11 -32 -8 -8 3 -18 5 -23
5 -13 0 -11 24 3 38 17 17 34 15 53 -5z"/>
<path d="M4908 1682 c-36 -4 -78 -55 -78 -94 0 -47 33 -85 80 -93 27 -4 46 -3
55 5 20 17 9 30 -25 30 -36 0 -60 23 -60 58 0 40 14 54 56 61 69 11 44 41 -28
33z"/>
<path d="M5062 1680 c-43 -7 -41 -26 2 -22 39 3 70 -23 45 -39 -8 -5 -23 -9
-34 -9 -37 0 -65 -28 -65 -66 0 -43 25 -55 100 -46 l54 7 -3 70 c-1 38 -7 77
-11 86 -11 20 -42 26 -88 19z m56 -121 c-5 -33 -34 -47 -54 -27 -24 24 -11 48
26 48 26 0 31 -3 28 -21z"/>
<path d="M550 1664 c0 -13 7 -15 33 -10 21 4 40 1 52 -7 22 -17 12 -37 -20
-37 -37 0 -55 -10 -71 -41 -11 -23 -12 -33 -2 -48 15 -25 33 -29 97 -23 l51 5
0 71 c-1 93 -11 106 -84 106 -45 0 -56 -3 -56 -16z m100 -102 c0 -37 -51 -59
-64 -27 -10 26 5 45 35 45 21 0 29 -5 29 -18z"/>
<path d="M990 1658 c-27 -29 -28 -118 -2 -140 36 -32 132 -32 132 -1 0 11 -7
13 -27 9 -34 -9 -85 12 -81 33 2 12 17 17 61 19 l57 3 0 33 c0 44 -26 66 -78
66 -30 0 -47 -6 -62 -22z m88 -10 c24 -24 13 -38 -28 -38 -43 0 -55 20 -22 39
23 14 36 13 50 -1z"/>
<path d="M1180 1590 c0 -83 1 -90 20 -90 17 0 20 7 20 49 0 66 14 101 40 101
26 0 30 -12 33 -86 2 -53 4 -59 25 -62 21 -3 22 0 22 55 0 69 16 99 48 89 18
-6 21 -16 24 -74 3 -59 5 -67 23 -67 18 0 20 6 19 73 -1 41 -7 79 -14 87 -15
18 -87 20 -92 4 -3 -9 -9 -9 -25 0 -27 14 -80 14 -89 0 -4 -8 -9 -8 -17 0 -29
29 -37 11 -37 -79z"/>
<path d="M1510 1591 c0 -84 1 -91 20 -91 18 0 20 7 20 80 0 44 1 83 3 88 1 4
-8 8 -20 10 -22 3 -23 1 -23 -87z"/>
<path d="M1629 1661 c-20 -16 -24 -28 -24 -75 0 -44 4 -58 20 -70 28 -20 71
-27 101 -16 33 13 22 30 -19 30 -41 0 -54 9 -62 43 -11 41 16 75 62 79 20 2
38 9 41 16 7 21 -91 15 -119 -7z"/>
<path d="M2099 1648 c-25 -41 -20 -101 11 -132 32 -32 106 -28 137 8 30 35 31
93 2 130 -18 22 -28 26 -75 26 -50 0 -56 -2 -75 -32z m125 -41 c7 -19 5 -32
-8 -52 -23 -35 -43 -41 -66 -20 -48 43 -7 145 45 111 11 -7 24 -25 29 -39z"/>
<path d="M2310 1606 c0 -69 2 -76 27 -96 20 -16 34 -19 57 -14 17 4 45 8 61 8
l30 1 0 85 c0 84 0 85 -25 85 -24 0 -25 -3 -30 -70 -4 -57 -8 -70 -23 -73 -34
-7 -47 17 -47 84 0 62 -1 64 -25 64 -24 0 -25 -2 -25 -74z"/>
<path d="M2540 1588 c0 -81 2 -88 20 -88 18 0 20 7 20 59 0 60 15 91 44 91 24
0 35 -25 38 -85 3 -52 6 -60 23 -60 17 0 20 8 23 57 2 38 -2 68 -13 88 -15 30
-17 30 -85 28 l-70 -2 0 -88z"/>
<path d="M2767 1662 c-30 -33 -19 -59 37 -87 11 -6 21 -19 21 -30 0 -17 -6
-20 -37 -18 -45 3 -53 -22 -10 -30 43 -8 83 4 94 29 15 32 5 49 -43 79 -45 29
-42 49 8 50 14 0 28 6 31 13 7 21 -82 16 -101 -6z"/>
<path d="M3230 1590 c0 -83 1 -90 20 -90 19 0 20 7 20 90 0 83 -1 90 -20 90
-19 0 -20 -7 -20 -90z"/>
<path d="M3326 1671 c-1 -3 -2 -42 -1 -86 1 -72 3 -80 21 -80 16 0 20 9 24 64
6 71 25 96 58 75 13 -8 18 -27 20 -78 3 -58 5 -66 22 -66 18 0 20 7 20 73 -1
98 -9 108 -94 105 -37 -1 -68 -4 -70 -7z"/>
<path d="M3561 1653 c-29 -36 -36 -68 -21 -104 16 -37 37 -49 89 -49 34 0 41
-3 41 -19 0 -23 -30 -35 -77 -32 -43 2 -45 -24 -2 -33 38 -7 78 1 102 22 14
13 17 33 17 127 l0 112 -64 2 c-59 1 -66 -1 -85 -26z m93 -9 c12 -4 16 -20 16
-54 0 -40 -4 -50 -20 -55 -11 -3 -29 -3 -40 0 -16 5 -20 15 -20 55 0 55 19 71
64 54z"/>
<path d="M4621 1601 c4 -88 13 -104 56 -103 15 1 47 2 71 2 l42 1 0 90 c0 88
-1 90 -22 87 -21 -3 -23 -10 -26 -63 -3 -66 -15 -87 -46 -83 -18 3 -22 12 -26
73 -5 64 -7 70 -29 73 -23 4 -23 3 -20 -77z"/>
<path d="M5357 1673 c-4 -3 -7 -44 -7 -90 0 -76 2 -83 20 -83 19 0 20 7 20 90
0 68 -3 90 -13 90 -8 0 -17 -3 -20 -7z"/>
<path d="M5461 1654 c-38 -49 -25 -125 25 -149 68 -32 144 11 144 83 0 57 -38
91 -102 92 -39 0 -50 -4 -67 -26z m99 -14 c26 -26 26 -81 0 -105 -18 -16 -23
-17 -45 -5 -34 18 -39 78 -8 112 21 23 28 23 53 -2z"/>
<path d="M5670 1588 c0 -81 2 -88 20 -88 18 0 20 7 20 58 0 67 22 99 59 87 17
-5 21 -16 23 -73 3 -64 4 -67 27 -67 24 0 25 2 22 60 -1 33 -8 71 -14 85 -11
23 -18 25 -85 26 l-72 0 0 -88z"/>
<path d="M5900 1664 c0 -13 7 -15 34 -10 23 5 37 2 45 -8 17 -20 5 -36 -25
-36 -27 0 -74 -40 -74 -63 0 -23 24 -48 50 -49 14 -1 45 -1 69 0 l43 2 -4 74
c-4 93 -15 106 -84 106 -43 0 -54 -3 -54 -16z m90 -103 c0 -24 -25 -45 -45
-37 -15 5 -21 37 -8 49 3 4 17 7 30 7 16 0 23 -6 23 -19z"/>
<path d="M6492 1657 c-28 -29 -30 -102 -4 -133 29 -37 142 -42 142 -7 0 12 -8
14 -32 9 -38 -7 -83 12 -83 34 0 11 16 16 60 20 59 5 60 6 58 34 -3 44 -29 66
-78 66 -30 0 -47 -6 -63 -23z m88 -12 c20 -24 5 -47 -27 -39 -43 10 -46 14
-27 35 21 23 37 24 54 4z"/>
<path d="M6689 1670 c0 -3 -1 -41 -1 -85 0 -71 3 -80 19 -80 15 0 18 9 19 47
2 61 8 76 39 88 14 5 25 16 25 24 0 12 -11 15 -50 13 -27 -1 -50 -4 -51 -7z"/>
<path d="M6813 1668 c3 -7 13 -33 22 -58 37 -97 45 -110 69 -110 17 0 27 9 36
33 7 17 21 53 31 79 24 59 24 68 -1 68 -11 0 -20 -1 -20 -2 -3 -23 -39 -113
-47 -115 -6 -2 -16 18 -23 44 -6 26 -14 54 -16 61 -2 6 -15 12 -30 12 -17 0
-24 -4 -21 -12z"/>
<path d="M7030 1590 c0 -83 1 -90 20 -90 19 0 20 7 20 90 0 83 -1 90 -20 90
-19 0 -20 -7 -20 -90z"/>
<path d="M7148 1663 c-43 -50 -46 -100 -7 -144 29 -33 135 -33 114 0 -3 6 -18
11 -33 11 -41 0 -56 15 -56 53 0 46 19 67 60 67 24 0 34 5 34 15 0 23 -92 21
-112 -2z"/>
<path d="M7311 1654 c-14 -17 -21 -41 -21 -68 1 -70 44 -102 123 -89 50 8 42
28 -12 29 -43 0 -79 23 -67 43 4 6 34 11 67 11 55 0 59 1 59 24 0 13 -9 35
-21 50 -16 21 -29 26 -64 26 -35 0 -48 -5 -64 -26z m83 0 c9 -3 16 -15 16 -25
0 -15 -7 -19 -33 -19 -43 0 -51 9 -30 32 18 20 23 21 47 12z"/>
<path d="M7510 1659 c-18 -33 -4 -67 35 -83 19 -8 35 -19 35 -24 0 -19 -29
-33 -53 -27 -36 9 -44 -13 -10 -26 33 -12 81 -1 96 22 18 28 0 68 -38 83 -19
8 -35 19 -35 24 0 18 26 31 48 25 16 -4 22 -1 22 11 0 26 -86 22 -100 -5z"/>
</g>
</svg>
